<svg xmlns="http://www.w3.org/2000/svg" viewBox="0 0 800 500">
  <defs>
    <pattern id="sh" width="35" height="35" patternUnits="userSpaceOnUse">
      <path d="M 35 0 L 0 0 0 35" fill="none" stroke="#3B82F6" stroke-opacity="0.06" stroke-width="0.5"/>
    </pattern>
    <linearGradient id="sb" x1="0" y1="0" x2="0" y2="1">
      <stop offset="0%" stop-color="#0A0A0A"/>
      <stop offset="100%" stop-color="#111827"/>
    </linearGradient>
    <linearGradient id="sg" x1="0.5" y1="0" x2="0.5" y2="1">
      <stop offset="0%" stop-color="#3B82F6" stop-opacity="0.1"/>
      <stop offset="100%" stop-color="#3B82F6" stop-opacity="0"/>
    </linearGradient>
  </defs>
  <rect width="800" height="500" fill="url(#sb)"/>
  <rect width="800" height="500" fill="url(#sh)"/>
  <ellipse cx="400" cy="250" rx="180" ry="100" fill="url(#sg)"/>
  <path d="M 400 100 Q 500 200 520 280 Q 540 360 400 400 Q 260 360 280 280 Q 300 200 400 100Z" fill="none" stroke="#3B82F6" stroke-opacity="0.25" stroke-width="1.5"/>
  <path d="M 400 130 Q 470 210 485 275 Q 500 340 400 370 Q 300 340 315 275 Q 330 210 400 130Z" fill="none" stroke="#3B82F6" stroke-opacity="0.15" stroke-width="1"/>
  <path d="M 400 160 Q 440 220 450 270 Q 460 320 400 340 Q 340 320 350 270 Q 360 220 400 160Z" fill="none" stroke="#3B82F6" stroke-opacity="0.1" stroke-width="0.8"/>
  <text x="400" y="435" text-anchor="middle" fill="#3B82F6" font-family="Arial, sans-serif" font-size="16" font-weight="bold" letter-spacing="2">整机渲染图 · 替换为你的图片</text>
  <line x1="280" y1="458" x2="520" y2="458" stroke="#3B82F6" stroke-opacity="0.12" stroke-width="1"/>
  <rect x="50" y="50" width="4" height="4" fill="#3B82F6" fill-opacity="0.3"/>
  <rect x="746" y="50" width="4" height="4" fill="#3B82F6" fill-opacity="0.3"/>
  <rect x="50" y="446" width="4" height="4" fill="#3B82F6" fill-opacity="0.3"/>
  <rect x="746" y="446" width="4" height="4" fill="#3B82F6" fill-opacity="0.3"/>
  <circle cx="100" cy="150" r="2" fill="#3B82F6" fill-opacity="0.2"/>
  <circle cx="700" cy="150" r="2" fill="#3B82F6" fill-opacity="0.2"/>
  <circle cx="100" cy="350" r="2" fill="#3B82F6" fill-opacity="0.2"/>
  <circle cx="700" cy="350" r="2" fill="#3B82F6" fill-opacity="0.2"/>
</svg>